<?xml version="1.0" encoding="utf-8"?>
<!-- Generator: Adobe Illustrator 25.4.1, SVG Export Plug-In . SVG Version: 6.00 Build 0)  -->
<svg version="1.1" id="Layer_1" xmlns="http://www.w3.org/2000/svg" xmlns:xlink="http://www.w3.org/1999/xlink" x="0px" y="0px"
	 viewBox="0 0 812.24 471.64" style="enable-background:new 0 0 812.24 471.64;" xml:space="preserve">
<style type="text/css">
	.st0{fill:#FFFFFF;}
	.st1{fill:#0C64C8;}
</style>
<g>
	<path class="st0" d="M170.89,146.78l-64.77,178.08h535.23l64.77-178.08L170.89,146.78L170.89,146.78z M384.48,309.44H341.7
		l-25.6-80.85l-29.41,80.85h-42.6l41.94-115.3h-65.52l-9.29,25.54h56.62l-10.8,29.7h-56.62l-21.84,60.06h-45.63l53.39-146.78h153.49
		l25.72,81.24l29.56-81.24h42.75L384.48,309.44z"/>
	<g>
		<path class="st1" d="M588.49,162.71v50.86c-4-4.27-8.59-7.47-13.76-9.61s-10.92-3.21-17.26-3.21c-13.01,0-23.73,4.67-32.17,14.02
			c-8.44,9.34-12.66,22.83-12.66,40.45c0,15.75,3.82,29.13,11.46,40.15c7.64,11.01,18.69,16.52,33.17,16.52
			c7.2,0,13.74-1.54,19.61-4.6c4.4-2.34,9.27-6.84,14.61-13.52v15.72h38.12V162.71H588.49z M583.59,275.94
			c-3.47,4.07-7.8,6.11-13.01,6.11c-4.87,0-8.96-2.02-12.26-6.06s-4.95-10.4-4.95-19.07c0-9.28,1.6-15.88,4.8-19.82
			s7.17-5.91,11.91-5.91c5.4,0,9.87,2.05,13.41,6.16c3.53,4.1,5.3,10.33,5.3,18.67C588.79,265.23,587.05,271.87,583.59,275.94z"/>
		<path class="st1" d="M473.92,207.72c-14.37,0-26.03,7.27-26.03,16.25v2.96v45.48h9.09l3.47,37.09h26.95l3.47-37.09h9.09v-45.48
			v-2.96C499.95,214.99,488.29,207.72,473.92,207.72z"/>
		
			<ellipse transform="matrix(2.075247e-03 -1 1 2.075247e-03 290.6104 655.8611)" class="st1" cx="473.92" cy="182.32" rx="19.87" ry="19.86"/>
	</g>
</g>
</svg>
