<svg width="20" height="20" viewBox="0 0 20 20" fill="none" xmlns="http://www.w3.org/2000/svg">
<path d="M8.11475 2.60519C9.64837 2.25868 11.2529 2.41721 12.6891 3.05713C13.0978 3.23923 13.5767 3.05555 13.7588 2.64686C13.9409 2.23817 13.7572 1.75925 13.3485 1.57714C11.5932 0.795024 9.6321 0.601267 7.75767 1.02477C5.88325 1.44827 4.19593 2.46634 2.94738 3.92714C1.69883 5.38795 0.955938 7.21321 0.829498 9.13072C0.703058 11.0482 1.19985 12.9552 2.24577 14.5673C3.2917 16.1794 4.83072 17.4103 6.6333 18.0762C8.43589 18.7422 10.4055 18.8076 12.2483 18.2627C14.0911 17.7179 15.7084 16.5919 16.859 15.0528C18.0096 13.5137 18.6319 11.6438 18.633 9.72216V8.97638C18.633 8.52896 18.2703 8.16625 17.8228 8.16625C17.3754 8.16625 17.0127 8.52896 17.0127 8.97638V9.72123C17.0118 11.2935 16.5027 12.8234 15.5613 14.0827C14.6199 15.342 13.2966 16.2632 11.7889 16.709C10.2811 17.1548 8.66965 17.1012 7.19481 16.5564C5.71996 16.0115 4.46077 15.0045 3.60501 13.6855C2.74925 12.3665 2.34279 10.8062 2.44624 9.23733C2.54969 7.66846 3.15751 6.17506 4.17905 4.97986C5.2006 3.78465 6.58112 2.95169 8.11475 2.60519Z" fill="#92CD76"/>
<path d="M18.396 3.81325C18.7122 3.49672 18.7119 2.98378 18.3954 2.66756C18.0789 2.35134 17.5659 2.3516 17.2497 2.66813L9.72129 10.2041L7.86404 8.34683C7.54767 8.03046 7.03472 8.03046 6.71835 8.34683C6.40197 8.66321 6.40197 9.17615 6.71835 9.49253L9.14873 11.9229C9.30071 12.0749 9.50685 12.1602 9.72178 12.1602C9.93671 12.1601 10.1428 12.0747 10.2947 11.9226L18.396 3.81325Z" fill="#92CD76"/>
</svg>
